<?xml version="1.0" encoding="utf-8"?>
<!-- Generator: Adobe Illustrator 21.1.0, SVG Export Plug-In . SVG Version: 6.00 Build 0)  -->
<svg version="1.1" id="Layer_1" xmlns="http://www.w3.org/2000/svg" xmlns:xlink="http://www.w3.org/1999/xlink" x="0px" y="0px"
	 viewBox="0 0 486 217" style="enable-background:new 0 0 486 217;" xml:space="preserve">
<style type="text/css">
	.st0{fill:url(#SVGID_1_);}
	.st1{fill:#048086;}
	.st2{fill:#00bcc4;}
	.st3{fill:#FFFFFF;}
</style>
<g>
	<linearGradient id="SVGID_1_" gradientUnits="userSpaceOnUse" x1="0" y1="177.26" x2="104.726" y2="177.26">
		<stop  offset="0.1644" style="stop-color:#00bcc4"/>
		<stop  offset="0.8135" style="stop-color:#048086"/>
	</linearGradient>
	<polygon class="st0" points="6.2,138 104.7,138 104.7,216.5 0,216.5 24.6,177.3 	"/>
	<path class="st1" d="M454.3,4v35.4C454.3,39.4,525.2,24,454.3,4z"/>
	<path class="st1" d="M104.7,185.7v30.8c0,0-94.4-25.3-29.3-33.8l29.3-5.4V185.7z"/>
	<path class="st2" d="M485.8,21.7v107l-433.4,57V91.8l414.3-55.9C466.6,35.9,475.7,28.6,485.8,21.7z"/>
</g>
<g>
	<path class="st3" d="M94.6,127.3c-7.8,6.6-7.9,19.2-0.8,26.8c1-1.6,1.9-3.3,2.7-5.4l18.3-43.8c3.1-7.4,8.3-11.5,13.1-12.1
		c17.4-2.3,18.9,20,2.1,28.3c18.3,9,10.2,41.9-15.9,45.3c-30.6,4-40.4-29-23.6-43.1L94.6,127.3z M117.4,124.1l-2.4,0.1l-11.4,27.4
		c-1.1,2.4-2.3,4.8-3.6,6.8c3.5,1.4,7.8,2.1,13,1.4C134.2,157,138.4,125.7,117.4,124.1z M117.3,118.7c8.9-1.3,13.6-3.9,16.1-10.6
		c3.3-8.8-5.7-14.2-10.7-2.4L117.3,118.7z"/>
	<path class="st3" d="M152.8,138.8l-0.6,1.6c-3.1,7.6,0.5,10.5,5.9,9.8c6.1-0.8,13.5-7.6,18.8-15.8l0.5-0.7c1.2,0.4,2.9,1.5,3.7,2.6
		c-6.1,9.3-15,18.4-24.9,19.7c-10.3,1.3-16.2-6.6-11.9-16.7l7.1-16.9c2.9-6.9,8-11.3,15.1-12.2c7.1-0.9,12.5,4.5,8.8,13.2l-1,2.3
		C169.2,138,158.7,140.5,152.8,138.8z M154.8,134.2c3.4,0.8,9.1,0.2,12.4-7.5l1-2.3c4-9.8-5.1-10-9-0.7L154.8,134.2z"/>
	<path class="st3" d="M175.2,146.4l5.1-3.6c0,0,1.6,3,4.5,2.7c8.3-1.1,4.4-17.2,6.6-26.7c-2.6,4.5-6.2,11.2-10.4,17.6
		c-1.4-0.7-2.8-1.6-3.7-2.6c6.7-10.3,13.1-22.7,16.1-28.2l7,2.7c-3.9,11.9-1.7,24.6-3.4,33.3c3.1-2.8,6.6-6.7,9.3-10.9l0.5-0.7
		c1.3,0.2,3,1.3,3.7,2.6c-5.6,8.5-13.5,16.7-22.2,19.1c-0.1,0-0.2,0.1-0.2,0.1c-0.8,0.2-1.6,0.4-2.4,0.5
		C177.7,153.2,175.2,146.4,175.2,146.4z"/>
	<path class="st3" d="M211.5,100.9l7.9-1l6.4-15.4l8.7-1.1l-6.4,15.4l7.2-0.9l-2,4.5l-7.1,0.9l-14.5,35.1c-1.6,3.7-0.3,4.9,1.6,4.7
		c3.9-0.5,9.3-7.1,14.6-15.2l0.5-0.8c1.2,0.4,2.9,1.5,3.7,2.6c-6.1,9.3-13.5,18.2-20.7,19.1c-7.1,0.9-10.4-4.7-7.6-11.7l13.6-32.7
		l-8,1L211.5,100.9z"/>
	<path class="st3" d="M280.6,139l8.5-56.4c-10.2,7.7-30.8,11.4-29.3,22.9c1,8.1,11.2,8.2,15.2,0.4l4.5,3.4
		c-1.9,4.6-6.5,7.7-11.5,8.3c-15.4,2-24.2-20.9,1.5-31.6c7.6-3.2,15.9-7.2,22.4-12.8l5.7,5.1l-6,39.3L310,81.5
		c9.6-18.2,22.8-14.3,25.6-7.5l-5.4,4c-3.3-5.4-8-3.3-12.6,5.3L288.5,138L280.6,139z"/>
	<path class="st3" d="M354.2,110.8c1.2,0.4,2.9,1.5,3.7,2.6c-6.1,9.3-13.5,18.2-20.7,19.1c-4.5,0.6-7.5-1.4-8.3-4.7
		c-3.8,4-7.8,6.8-11.4,7.3c-7.1,0.9-10.4-4.7-7.6-11.7l9.5-22.8c2.9-6.9,8.9-11.4,13.7-12c5.7-0.7,10.2,3.9,10.3,7.6l5-0.6
		l-10.9,26.6c-1.6,3.7-0.3,4.9,1.6,4.7c3.9-0.5,9.3-7.1,14.6-15.2L354.2,110.8z M317.8,124.7c-1.6,3.7-0.3,4.9,1.6,4.7
		c3.6-0.5,8.3-5.1,12.5-14.1l5.3-12.8c3.3-8.5-6.3-9.4-10-0.6L317.8,124.7z"/>
	<path class="st3" d="M375.8,108c1.2,0.4,2.9,1.5,3.7,2.6c-6.1,9.3-13.5,18.2-20.7,19.1c-7.1,0.9-10.4-4.7-7.6-11.7l21.9-52.6
		l8.7-1.1l-22.8,55c-1.6,3.7-0.3,4.9,1.6,4.7c3.9-0.5,9.3-7.1,14.6-15.2L375.8,108z"/>
	<path class="st3" d="M417.1,102.6c1.2,0.4,2.9,1.5,3.7,2.6c-6.1,9.3-13.5,18.2-20.7,19.1c-5.5,0.7-8.8-2.6-8.6-7.4
		c-3.7,4.6-8.5,9.7-13.3,10.3c-5.8,0.8-8.5-4.4-5.1-12.8l13.3-31.9l8.7-1.1l-13.2,32c-0.9,2-2.6,5.6-0.3,6.2
		c1.8,0.5,6.5-3.5,12.3-10.4l12-29.2l8.7-1.1l-14.4,35.1c-1.6,3.7-0.3,4.9,1.6,4.7c3.9-0.5,9.3-7.1,14.6-15.2L417.1,102.6z"/>
	<path class="st3" d="M425,103.5l-0.6,1.6c-3.1,7.6,0.5,10.5,5.9,9.8c6.1-0.8,13.5-7.6,18.8-15.8l0.5-0.7c1.2,0.4,2.9,1.5,3.7,2.6
		c-6.1,9.3-15,18.4-24.9,19.7C418,122,412.2,114,416.5,104l7.1-16.9c2.9-6.9,8-11.3,15.1-12.2c7.1-0.9,12.5,4.5,8.8,13.2l-1,2.3
		C441.4,102.6,431,105.1,425,103.5z M427,98.8c3.4,0.8,9.1,0.2,12.4-7.5l1-2.3c4-9.8-5.1-10-9-0.7L427,98.8z"/>
</g>
</svg>